STARTFONT 2.1
FONT -sun-helmet-medium-i-normal--24-240-75-75-p-131-adobe-fontspecific
SIZE 24 75 75
FONTBOUNDINGBOX 29 28 -3 -5

STARTPROPERTIES 28
FOUNDRY "sun"
FAMILY_NAME "helmet"
WEIGHT_NAME "medium"
SLANT "i"
SETWIDTH_NAME "normal"
ADD_STYLE_NAME ""
PIXEL_SIZE 25
POINT_SIZE 240
RESOLUTION_X 75
RESOLUTION_Y 75
SPACING "p"
AVERAGE_WIDTH 131
CHARSET_REGISTRY "adobe"
CHARSET_ENCODING "fontspecific"
COPYRIGHT "© 1999 Sun Microsystems, Inc."
RAW_PIXELSIZE 1000
RAW_POINTSIZE 964
RAW_ASCENT 915
RAW_DESCENT 196
RAW_AVERAGE_WIDTH 5251
FACE_NAME "HelmetItalicalic5"
_XMBDFED_INFO "Edited with xmbdfed 2.4."
WEIGHT 10
X_HEIGHT -1
QUAD_WIDTH 13
DEFAULT_CHAR 4
FONT_DESCENT 5
FONT_ASCENT 23
ENDPROPERTIES

CHARS 202

STARTCHAR char32
ENCODING 32
SWIDTH 25 0
DWIDTH 7 0
BBX 0 0 0 0
BITMAP
ENDCHAR

STARTCHAR char33
ENCODING 33
SWIDTH 25 0
DWIDTH 7 0
BBX 7 19 1 -1
BITMAP
0E
0E
0C
0C
1C
1C
18
18
18
38
30
30
30
00
00
00
60
E0
80
ENDCHAR

STARTCHAR char34
ENCODING 34
SWIDTH 35 0
DWIDTH 10 0
BBX 8 8 3 11
BITMAP
11
67
66
E6
66
66
CC
88
ENDCHAR

STARTCHAR char35
ENCODING 35
SWIDTH 10 0
DWIDTH 13 0
BBX 12 18 0 0
BITMAP
0C60
0C60
0C60
0C40
0C40
7FF0
1FF0
18C0
18C0
18C0
1880
FFF0
FFF0
1180
3180
3180
3180
3100
ENDCHAR

STARTCHAR char36
ENCODING 36
SWIDTH 13 0
DWIDTH 14 0
BBX 13 22 0 -2
BITMAP
00C0
00C0
07E0
0FF0
1CB8
3998
3998
3900
3900
1F00
0F80
03C0
02E0
0270
E630
C630
C430
E460
7FE0
3F80
0C00
0800
ENDCHAR

STARTCHAR char37
ENCODING 37
SWIDTH 2 0
DWIDTH 21 0
BBX 19 18 1 0
BITMAP
1C0600
3E0C00
630C00
631800
C31800
C33000
C33000
C26380
C647C0
CECC60
7C8C60
399860
031860
0318E0
0618C0
0619C0
0C1F80
0C0F00
ENDCHAR

STARTCHAR char38
ENCODING 38
SWIDTH 21 0
DWIDTH 16 0
BBX 14 18 0 0
BITMAP
03C0
07E0
0E70
0C30
0C30
0E60
07E0
0780
1F80
7980
71CC
E0EC
C0EC
C078
E038
70F8
7FD8
1F8C
ENDCHAR

STARTCHAR char39
ENCODING 39
SWIDTH 21 0
DWIDTH 6 0
BBX 4 7 3 11
BITMAP
30
60
40
E0
E0
C0
80
ENDCHAR

STARTCHAR char40
ENCODING 40
SWIDTH 28 0
DWIDTH 8 0
BBX 8 22 2 -4
BITMAP
03
06
0E
0C
18
38
30
70
60
60
E0
C0
C0
C0
C0
C0
C0
C0
C0
40
60
60
ENDCHAR

STARTCHAR char41
ENCODING 41
SWIDTH 28 0
DWIDTH 8 0
BBX 8 22 -2 -4
BITMAP
0C
06
06
06
03
03
03
03
03
03
07
07
07
0E
0E
0E
1C
18
38
70
60
C0
ENDCHAR

STARTCHAR char42
ENCODING 42
SWIDTH 35 0
DWIDTH 10 0
BBX 8 8 2 10
BITMAP
0C
0C
6D
7F
18
3C
66
22
ENDCHAR

STARTCHAR char43
ENCODING 43
SWIDTH 24 0
DWIDTH 17 0
BBX 14 15 2 0
BITMAP
0300
0300
0300
0300
0300
0300
0300
FFFC
FFFC
0300
0300
0300
0300
0300
0300
ENDCHAR

STARTCHAR char44
ENCODING 44
SWIDTH 21 0
DWIDTH 6 0
BBX 4 7 -1 -4
BITMAP
10
30
70
70
60
60
80
ENDCHAR

STARTCHAR char45
ENCODING 45
SWIDTH 35 0
DWIDTH 10 0
BBX 8 2 1 6
BITMAP
FE
FE
ENDCHAR

STARTCHAR char46
ENCODING 46
SWIDTH 21 0
DWIDTH 6 0
BBX 3 3 0 -1
BITMAP
60
E0
80
ENDCHAR

STARTCHAR char47
ENCODING 47
SWIDTH 32 0
DWIDTH 9 0
BBX 9 18 0 0
BITMAP
0180
0180
0300
0300
0600
0600
0600
0C00
0C00
1800
1800
3000
3000
2000
6000
6000
C000
C000
ENDCHAR

STARTCHAR char48
ENCODING 48
SWIDTH 17 0
DWIDTH 15 0
BBX 12 18 1 0
BITMAP
07C0
0FE0
1C60
3830
3030
7030
6030
6030
E030
C030
C020
C060
C060
C0E0
E0C0
61C0
7F80
1F00
ENDCHAR

STARTCHAR char49
ENCODING 49
SWIDTH 17 0
DWIDTH 15 0
BBX 7 18 4 0
BITMAP
06
06
1E
FE
FE
0C
0C
1C
1C
18
18
18
38
38
30
30
30
70
ENDCHAR

STARTCHAR char50
ENCODING 50
SWIDTH 17 0
DWIDTH 15 0
BBX 13 18 0 0
BITMAP
03C0
0FF0
1C70
1838
3818
0018
0018
0030
0070
01E0
03C0
0F00
1C00
3800
7000
6000
7FE0
FFE0
ENDCHAR

STARTCHAR char51
ENCODING 51
SWIDTH 17 0
DWIDTH 15 0
BBX 12 18 1 0
BITMAP
0780
1FE0
1C70
3830
3030
0030
0060
00E0
07C0
07C0
00E0
0060
0060
C060
C0E0
E1C0
7F80
1F00
ENDCHAR

STARTCHAR char52
ENCODING 52
SWIDTH 17 0
DWIDTH 15 0
BBX 12 18 1 0
BITMAP
0030
0070
00F0
01E0
03E0
0760
0E60
1CE0
18C0
30C0
70C0
E1C0
FFF0
FFE0
0180
0180
0380
0300
ENDCHAR

STARTCHAR char53
ENCODING 53
SWIDTH 17 0
DWIDTH 15 0
BBX 13 18 1 0
BITMAP
0FF8
1FF0
1800
1800
3800
3000
3780
7FE0
70E0
6070
0030
0030
0030
C070
C060
61E0
7FC0
1F00
ENDCHAR

STARTCHAR char54
ENCODING 54
SWIDTH 17 0
DWIDTH 15 0
BBX 12 18 2 0
BITMAP
07C0
0FE0
1C70
3030
3030
6000
6F00
7FC0
F1C0
E0E0
C060
C060
C060
C0E0
C0C0
61C0
3F80
1E00
ENDCHAR

STARTCHAR char55
ENCODING 55
SWIDTH 17 0
DWIDTH 15 0
BBX 12 18 2 0
BITMAP
7FF0
7FF0
0070
00E0
00C0
0180
0380
0700
0600
0E00
1C00
1C00
3800
3800
3000
7000
6000
6000
ENDCHAR

STARTCHAR char56
ENCODING 56
SWIDTH 17 0
DWIDTH 15 0
BBX 13 18 1 0
BITMAP
07E0
0FF0
1C78
3818
3018
3018
3838
1C70
1FE0
3FC0
6060
E070
C070
C070
C060
E0C0
7F80
1F00
ENDCHAR

STARTCHAR char57
ENCODING 57
SWIDTH 17 0
DWIDTH 15 0
BBX 12 18 1 0
BITMAP
0780
1FC0
3860
3030
7030
6030
6030
6030
7070
70F0
3FE0
1F60
0060
C0C0
C1C0
E380
7F00
3E00
ENDCHAR

STARTCHAR char58
ENCODING 58
SWIDTH 25 0
DWIDTH 7 0
BBX 6 13 1 -1
BITMAP
18
18
20
00
00
00
00
00
00
00
60
60
80
ENDCHAR

STARTCHAR char59
ENCODING 59
SWIDTH 25 0
DWIDTH 7 0
BBX 7 16 0 -4
BITMAP
0C
0C
10
00
00
00
00
00
00
30
30
70
70
20
60
80
ENDCHAR

STARTCHAR char60
ENCODING 60
SWIDTH 17 0
DWIDTH 15 0
BBX 13 13 0 0
BITMAP
0008
0038
00F0
03C0
0E00
7800
E000
7000
1E00
0780
01E0
0078
0008
ENDCHAR

STARTCHAR char61
ENCODING 61
SWIDTH 24 0
DWIDTH 17 0
BBX 17 7 0 4
BITMAP
FFFF80
FFFF80
000000
000000
000000
FFFF80
FFFF80
ENDCHAR

STARTCHAR char62
ENCODING 62
SWIDTH 17 0
DWIDTH 15 0
BBX 12 13 1 0
BITMAP
8000
E000
7800
1E00
0780
00E0
0030
00F0
03C0
0F00
3C00
E000
8000
ENDCHAR

STARTCHAR char63
ENCODING 63
SWIDTH 10 0
DWIDTH 13 0
BBX 11 19 2 -1
BITMAP
0F00
3FC0
70C0
6060
6060
E060
0060
00C0
0380
0700
0E00
1C00
1800
1800
0000
0000
3800
3000
2000
ENDCHAR

STARTCHAR char64
ENCODING 64
SWIDTH 24 0
DWIDTH 27 0
BBX 18 19 4 0
BITMAP
01F000
07F800
1C0E00
300700
600180
63ED80
C7FCC0
CE1CC0
CC18C0
DC18C0
D818C0
D83180
D83100
DC7300
4FFE00
679980
380300
1FFC00
07F000
ENDCHAR

STARTCHAR char65
ENCODING 65
SWIDTH 24 0
DWIDTH 17 0
BBX 15 18 -1 0
BITMAP
0078
0078
00F8
00D8
01D8
0398
0398
071C
061C
0E0C
0C0C
1FFC
1FFC
380E
700E
700E
E006
E006
ENDCHAR

STARTCHAR char66
ENCODING 66
SWIDTH 24 0
DWIDTH 17 0
BBX 15 18 0 0
BITMAP
1FF8
1FFC
181E
180E
3806
3806
380E
303C
3FF8
7FF8
701C
600C
600C
600C
E01C
E078
FFF0
FFC0
ENDCHAR

STARTCHAR char67
ENCODING 67
SWIDTH 28 0
DWIDTH 18 0
BBX 16 18 1 0
BITMAP
03F0
0FFC
1E1E
3807
3807
7003
6000
E000
C000
C000
C000
C000
C006
E00E
601C
3838
1FF0
0FC0
ENDCHAR

STARTCHAR char68
ENCODING 68
SWIDTH 24 0
DWIDTH 17 0
BBX 16 18 0 0
BITMAP
1FF0
1FFC
183E
180E
3807
3803
3003
3003
3003
7003
7007
6006
600E
601C
E03C
E078
FFF0
FFC0
ENDCHAR

STARTCHAR char69
ENCODING 69
SWIDTH 17 0
DWIDTH 15 0
BBX 15 18 0 0
BITMAP
1FFE
1FFC
1800
1800
1800
3800
3800
3800
3FF8
3FF8
7000
7000
6000
6000
6000
E000
FFF0
FFF0
ENDCHAR

STARTCHAR char70
ENCODING 70
SWIDTH 10 0
DWIDTH 13 0
BBX 14 18 0 0
BITMAP
1FFC
1FFC
1C00
1800
1800
3800
3800
3800
3FF0
3FF0
7000
7000
7000
6000
6000
E000
E000
E000
ENDCHAR

STARTCHAR char71
ENCODING 71
SWIDTH 31 0
DWIDTH 19 0
BBX 16 18 1 0
BITMAP
03F8
0FFC
1E1E
3807
7007
7000
6000
E000
C000
C0FF
C0FF
C006
C006
E00E
601E
783C
1FFC
0F8C
ENDCHAR

STARTCHAR char72
ENCODING 72
SWIDTH 24 0
DWIDTH 17 0
BBX 17 18 0 0
BITMAP
1C0380
1C0380
180380
180300
180700
380700
380700
3FFE00
3FFE00
700E00
700E00
600E00
600C00
600C00
E01C00
E01C00
C01C00
C01800
ENDCHAR

STARTCHAR char73
ENCODING 73
SWIDTH 21 0
DWIDTH 6 0
BBX 7 18 0 0
BITMAP
0E
0C
0C
1C
1C
18
18
38
38
38
30
30
70
70
70
60
E0
E0
ENDCHAR

STARTCHAR char74
ENCODING 74
SWIDTH 10 0
DWIDTH 13 0
BBX 13 18 0 0
BITMAP
0038
0038
0030
0030
0070
0070
0070
0060
0060
00E0
00E0
00E0
C0C0
C0C0
C1C0
E1C0
7F80
3E00
ENDCHAR

STARTCHAR char75
ENCODING 75
SWIDTH 21 0
DWIDTH 16 0
BBX 16 18 0 0
BITMAP
1C0F
1C1E
183C
1878
38F0
39E0
3B80
3700
3F80
7D80
79C0
70C0
60E0
6070
E070
E038
E038
C01C
ENDCHAR

STARTCHAR char76
ENCODING 76
SWIDTH 13 0
DWIDTH 14 0
BBX 12 18 0 0
BITMAP
1C00
1C00
1C00
1800
1800
3800
3800
3800
3000
3000
7000
7000
7000
6000
6000
E000
FFF0
FFF0
ENDCHAR

STARTCHAR char77
ENCODING 77
SWIDTH 35 0
DWIDTH 20 0
BBX 20 18 0 0
BITMAP
1E00F0
1E00F0
1E01F0
3E01E0
3E03E0
360360
3607E0
3606C0
770CC0
731CC0
6319C0
6339C0
633180
E37180
E36380
C3E380
C3C380
C18300
ENDCHAR

STARTCHAR char78
ENCODING 78
SWIDTH 24 0
DWIDTH 17 0
BBX 17 18 0 0
BITMAP
1C0380
1E0380
1E0300
1E0300
3F0300
3B0700
338700
338600
318600
71C600
70CE00
60EE00
60EC00
E06C00
E07C00
E03C00
C03C00
C01800
ENDCHAR

STARTCHAR char79
ENCODING 79
SWIDTH 31 0
DWIDTH 19 0
BBX 16 18 1 0
BITMAP
03F0
0FFC
1E0C
3806
7007
7003
6003
E003
C003
C003
C003
C007
C006
E00E
601C
7038
3FF0
0FC0
ENDCHAR

STARTCHAR char80
ENCODING 80
SWIDTH 17 0
DWIDTH 15 0
BBX 14 18 0 0
BITMAP
1FF0
1FF8
1C38
180C
180C
380C
380C
381C
3038
3FF0
7FE0
7000
6000
6000
E000
E000
E000
C000
ENDCHAR

STARTCHAR char81
ENCODING 81
SWIDTH 31 0
DWIDTH 19 0
BBX 16 20 1 -2
BITMAP
03F0
0FFC
1E0E
3806
3007
7003
6003
E003
C003
C003
C003
C006
C006
E08E
61DC
70F8
3FF0
0FD8
001C
000C
ENDCHAR

STARTCHAR char82
ENCODING 82
SWIDTH 24 0
DWIDTH 17 0
BBX 15 18 0 0
BITMAP
1FF8
1FFC
181E
1806
3806
3806
3806
300C
3FF8
7FF0
7038
6018
6018
6018
E018
E018
C018
C01C
ENDCHAR

STARTCHAR char83
ENCODING 83
SWIDTH 21 0
DWIDTH 16 0
BBX 15 18 0 0
BITMAP
07F0
1FF8
1C1C
380C
300E
3800
3C00
1E00
0F80
03E0
00F0
0038
0018
C018
C018
7030
3FE0
0F80
ENDCHAR

STARTCHAR char84
ENCODING 84
SWIDTH 10 0
DWIDTH 13 0
BBX 13 18 2 0
BITMAP
FFF8
FFF8
07F0
0600
0600
0E00
0E00
0E00
0C00
0C00
1C00
1C00
1C00
1800
3800
3800
3800
3000
ENDCHAR

STARTCHAR char85
ENCODING 85
SWIDTH 24 0
DWIDTH 17 0
BBX 16 18 1 0
BITMAP
3807
3806
3006
300E
300E
700E
700C
600C
601C
601C
E018
C018
C038
C038
C070
60F0
3FE0
1F80
ENDCHAR

STARTCHAR char86
ENCODING 86
SWIDTH 17 0
DWIDTH 15 0
BBX 15 18 2 0
BITMAP
E00E
E01C
601C
6038
6038
7070
7070
7060
30E0
30C0
31C0
3180
3B80
3B00
1F00
1E00
1E00
1C00
ENDCHAR

STARTCHAR char87
ENCODING 87
SWIDTH 2 0
DWIDTH 21 0
BBX 21 18 2 0
BITMAP
C06038
C0E030
E0E070
E1E070
E1A0E0
E1B0E0
E3B0C0
E331C0
E73180
E63180
E63380
6E3300
6C3700
7C3600
783600
783E00
701C00
701C00
ENDCHAR

STARTCHAR char88
ENCODING 88
SWIDTH 17 0
DWIDTH 15 0
BBX 16 18 -1 0
BITMAP
1C07
0C0E
0E1E
061C
0738
0770
03E0
03E0
01C0
03C0
07C0
0EE0
0E60
1C70
3870
7038
F038
E018
ENDCHAR

STARTCHAR char89
ENCODING 89
SWIDTH 17 0
DWIDTH 15 0
BBX 15 18 2 0
BITMAP
E01E
601C
7038
7078
3070
38E0
39C0
1980
1F80
1F00
0E00
0C00
0C00
1C00
1C00
1C00
1800
1800
ENDCHAR

STARTCHAR char90
ENCODING 90
SWIDTH 17 0
DWIDTH 15 0
BBX 16 18 -1 0
BITMAP
1FFF
1FFF
000E
001C
0038
0070
0070
00E0
01C0
0380
0700
0E00
1E00
1C00
3800
7000
7FFC
FFFC
ENDCHAR

STARTCHAR char91
ENCODING 91
SWIDTH 3 0
DWIDTH 11 0
BBX 12 22 1 -4
BITMAP
03F0
07F0
0700
0600
0E00
0E00
0C00
0C00
1C00
1C00
1800
1800
3800
3800
3000
3000
7000
7000
6000
E000
FE00
FC00
ENDCHAR

STARTCHAR char92
ENCODING 92
SWIDTH 25 0
DWIDTH 7 0
BBX 7 18 0 0
BITMAP
C0
C0
40
60
60
20
30
30
10
18
18
08
0C
0C
04
06
06
02
ENDCHAR

STARTCHAR char93
ENCODING 93
SWIDTH 3 0
DWIDTH 11 0
BBX 13 22 -3 -4
BITMAP
03F0
03F0
0070
0070
0060
00E0
00E0
00C0
00C0
01C0
01C0
0180
0180
0380
0380
0300
0700
0700
0700
0600
7E00
FE00
ENDCHAR

STARTCHAR char94
ENCODING 94
SWIDTH 0 0
DWIDTH 0 0
BBX 7 4 -1 19
BITMAP
3C
7C
66
E6
ENDCHAR

STARTCHAR char95
ENCODING 95
SWIDTH 17 0
DWIDTH 15 0
BBX 14 2 0 -3
BITMAP
FFFC
FFFC
ENDCHAR

STARTCHAR char96
ENCODING 96
SWIDTH 0 0
DWIDTH 0 0
BBX 6 4 -2 14
BITMAP
70
38
18
0C
ENDCHAR

STARTCHAR char97
ENCODING 97
SWIDTH 10 0
DWIDTH 13 0
BBX 12 13 0 0
BITMAP
07C0
1FF0
3030
0030
0070
1FE0
7FE0
F0E0
C0E0
C0E0
E1C0
7FF0
3E70
ENDCHAR

STARTCHAR char98
ENCODING 98
SWIDTH 17 0
DWIDTH 15 0
BBX 13 18 0 0
BITMAP
1C00
1C00
1800
1800
1800
3BC0
3FF0
3830
3018
3018
7018
6018
6038
6030
6070
F0E0
DFC0
CF80
ENDCHAR

STARTCHAR char99
ENCODING 99
SWIDTH 10 0
DWIDTH 13 0
BBX 12 13 1 0
BITMAP
0F80
1FC0
3060
6070
6000
C000
C000
C000
C000
C0C0
61C0
7F80
1E00
ENDCHAR

STARTCHAR char100
ENCODING 100
SWIDTH 17 0
DWIDTH 15 0
BBX 14 18 0 0
BITMAP
000C
000C
000C
001C
0018
0F98
1FF8
3878
7038
6030
E030
C030
C030
C070
C0E0
71E0
7F60
1E60
ENDCHAR

STARTCHAR char101
ENCODING 101
SWIDTH 13 0
DWIDTH 14 0
BBX 11 13 1 0
BITMAP
0F00
3FC0
30C0
6060
4060
FFE0
FFE0
C000
C000
C0C0
6180
7F80
1E00
ENDCHAR

STARTCHAR char102
ENCODING 102
SWIDTH 28 0
DWIDTH 8 0
BBX 8 18 1 0
BITMAP
0F
0F
1C
18
18
7E
FE
30
30
30
70
70
60
60
60
E0
E0
C0
ENDCHAR

STARTCHAR char103
ENCODING 103
SWIDTH 17 0
DWIDTH 15 0
BBX 13 17 0 -4
BITMAP
0F98
3FF8
7878
7038
E030
E030
C030
C030
C070
E060
71E0
7FE0
1EE0
00C0
C1C0
FF80
3F00
ENDCHAR

STARTCHAR char104
ENCODING 104
SWIDTH 13 0
DWIDTH 14 0
BBX 12 18 0 0
BITMAP
0C00
1C00
1800
1800
1800
3BE0
3FF0
3C70
3830
3070
7070
7060
6060
6060
60E0
E0E0
C0C0
C0C0
ENDCHAR

STARTCHAR char105
ENCODING 105
SWIDTH 21 0
DWIDTH 6 0
BBX 6 18 0 0
BITMAP
0C
0C
10
00
00
18
18
38
38
30
30
30
70
70
60
60
E0
E0
ENDCHAR

STARTCHAR char106
ENCODING 106
SWIDTH 21 0
DWIDTH 6 0
BBX 9 22 -3 -4
BITMAP
0380
0380
0200
0000
0000
0700
0700
0600
0600
0600
0E00
0E00
0C00
0C00
0C00
1C00
1C00
1800
1800
3800
F800
F000
ENDCHAR

STARTCHAR char107
ENCODING 107
SWIDTH 6 0
DWIDTH 12 0
BBX 13 18 0 0
BITMAP
1C00
1C00
1800
1800
1800
3878
30E0
31C0
3380
3700
7F00
7B00
7380
6380
E180
E1C0
C1C0
C0C0
ENDCHAR

STARTCHAR char108
ENCODING 108
SWIDTH 21 0
DWIDTH 6 0
BBX 6 18 0 0
BITMAP
0C
0C
1C
1C
18
18
18
38
38
30
30
30
70
70
60
60
E0
E0
ENDCHAR

STARTCHAR char109
ENCODING 109
SWIDTH 2 0
DWIDTH 21 0
BBX 19 13 0 0
BITMAP
33C3C0
3FEFE0
387860
707060
7060E0
6060E0
60E0C0
60E0C0
E0C0C0
E0C1C0
C0C1C0
C1C1C0
C181C0
ENDCHAR

STARTCHAR char110
ENCODING 110
SWIDTH 13 0
DWIDTH 14 0
BBX 12 13 0 0
BITMAP
1BE0
37F0
3C30
3830
3030
7070
6060
6060
6060
E0E0
E0E0
C0E0
C0C0
ENDCHAR

STARTCHAR char111
ENCODING 111
SWIDTH 17 0
DWIDTH 15 0
BBX 12 13 1 0
BITMAP
0F80
3FC0
3060
6030
6030
C030
C030
C070
C060
C0E0
61C0
7F80
1F00
ENDCHAR

STARTCHAR char112
ENCODING 112
SWIDTH 17 0
DWIDTH 15 0
BBX 13 17 -1 -4
BITMAP
1DE0
1BF0
1C30
1818
3818
3018
3018
3018
3030
7030
7860
6FE0
6780
E000
E000
C000
C000
ENDCHAR

STARTCHAR char113
ENCODING 113
SWIDTH 17 0
DWIDTH 15 0
BBX 13 17 1 -4
BITMAP
0F30
3FF0
30F0
6070
4070
C060
C060
C060
C0E0
C0C0
61C0
7FC0
3CC0
01C0
0180
0180
0380
ENDCHAR

STARTCHAR char114
ENCODING 114
SWIDTH 32 0
DWIDTH 9 0
BBX 10 13 0 0
BITMAP
1B80
1F80
3C00
3800
3000
3000
7000
7000
6000
6000
6000
E000
E000
ENDCHAR

STARTCHAR char115
ENCODING 115
SWIDTH 6 0
DWIDTH 12 0
BBX 11 13 0 0
BITMAP
0F80
1FE0
30E0
3060
3800
1E00
0F80
0380
C1C0
C0C0
E0C0
7F80
1E00
ENDCHAR

STARTCHAR char116
ENCODING 116
SWIDTH 25 0
DWIDTH 7 0
BBX 7 17 1 0
BITMAP
18
18
38
38
FE
FC
30
30
70
60
60
60
E0
C0
C0
F0
70
ENDCHAR

STARTCHAR char117
ENCODING 117
SWIDTH 13 0
DWIDTH 14 0
BBX 12 13 1 0
BITMAP
7030
7070
7070
6060
6060
6060
60E0
C0C0
C1C0
C1C0
C3C0
FFC0
7980
ENDCHAR

STARTCHAR char118
ENCODING 118
SWIDTH 6 0
DWIDTH 12 0
BBX 11 13 1 0
BITMAP
C0E0
C0E0
E1C0
E1C0
E380
6380
6700
6600
6E00
6C00
6C00
7800
3000
ENDCHAR

STARTCHAR char119
ENCODING 119
SWIDTH 28 0
DWIDTH 18 0
BBX 17 13 1 0
BITMAP
C1C180
C3C380
C3C300
C7C700
C6C600
E6CE00
ECCC00
ECDC00
78D800
78D800
78F000
70F000
70E000
ENDCHAR

STARTCHAR char120
ENCODING 120
SWIDTH 6 0
DWIDTH 12 0
BBX 13 13 -1 0
BITMAP
3838
1870
1CE0
0CE0
0FC0
0780
0700
0F00
1F80
3980
71C0
F0C0
E0E0
ENDCHAR

STARTCHAR char121
ENCODING 121
SWIDTH 6 0
DWIDTH 12 0
BBX 14 17 -1 -4
BITMAP
381C
3838
1838
1870
1860
18E0
18C0
1DC0
0D80
0F80
0F00
0F00
0E00
0E00
1C00
7800
F000
ENDCHAR

STARTCHAR char122
ENCODING 122
SWIDTH 6 0
DWIDTH 12 0
BBX 13 13 -1 0
BITMAP
3FF0
3FF0
00E0
01C0
0180
0380
0700
0E00
1C00
3800
7000
7FE0
FFE0
ENDCHAR

STARTCHAR char123
ENCODING 123
SWIDTH 32 0
DWIDTH 9 0
BBX 6 23 1 -5
BITMAP
1C
3C
30
30
30
30
30
30
30
30
60
C0
60
30
30
30
30
30
30
30
30
3C
1C
ENDCHAR

STARTCHAR char124
ENCODING 124
SWIDTH 25 0
DWIDTH 7 0
BBX 2 18 2 0
BITMAP
C0
C0
C0
C0
C0
C0
C0
C0
C0
C0
C0
C0
C0
C0
C0
C0
C0
C0
ENDCHAR

STARTCHAR char125
ENCODING 125
SWIDTH 32 0
DWIDTH 9 0
BBX 6 23 1 -5
BITMAP
E0
F0
30
30
30
30
30
30
30
38
1C
0C
18
38
30
30
30
30
30
30
30
F0
E0
ENDCHAR

STARTCHAR char126
ENCODING 126
SWIDTH 0 0
DWIDTH 0 0
BBX 8 3 -1 19
BITMAP
71
FF
8E
ENDCHAR

STARTCHAR char128
ENCODING 128
SWIDTH 13 0
DWIDTH 14 0
BBX 15 18 1 0
BITMAP
00F8
03FE
0F06
1C00
3800
3800
FFF0
FFF0
7000
6000
FFE0
FFE0
6000
7000
3800
3C10
1FF0
07E0
ENDCHAR

STARTCHAR char130
ENCODING 130
SWIDTH 21 0
DWIDTH 6 0
BBX 5 7 -1 -4
BITMAP
10
30
70
70
20
60
80
ENDCHAR

STARTCHAR char131
ENCODING 131
SWIDTH 0 0
DWIDTH 0 0
BBX 7 4 -1 19
BITMAP
3C
7C
66
E6
ENDCHAR

STARTCHAR char132
ENCODING 132
SWIDTH 35 0
DWIDTH 10 0
BBX 8 7 -1 -4
BITMAP
71
77
77
67
66
C4
88
ENDCHAR

STARTCHAR char133
ENCODING 133
SWIDTH 24 0
DWIDTH 27 0
BBX 19 2 3 0
BITMAP
C0C060
C0C060
ENDCHAR

STARTCHAR char134
ENCODING 134
SWIDTH 10 0
DWIDTH 13 0
BBX 11 20 2 -2
BITMAP
0700
0600
0600
0600
0E00
FFE0
FFC0
0C00
1C00
1C00
1800
1800
1800
3800
3800
3000
3000
3000
7000
7000
ENDCHAR

STARTCHAR char136
ENCODING 136
SWIDTH 0 0
DWIDTH 0 0
BBX 7 3 -2 14
BITMAP
3C
36
66
ENDCHAR

STARTCHAR char138
ENCODING 138
SWIDTH 16 0
DWIDTH 25 0
BBX 0 0 0 0
BITMAP
ENDCHAR

STARTCHAR char139
ENCODING 139
SWIDTH 32 0
DWIDTH 9 0
BBX 4 8 2 3
BITMAP
10
30
70
C0
C0
60
30
10
ENDCHAR

STARTCHAR char140
ENCODING 140
SWIDTH 20 0
DWIDTH 26 0
BBX 25 18 1 0
BITMAP
03E3FF80
0FFBFF80
1C1F0000
380E0000
30060000
60060000
60060000
C00E0000
C00FFE00
C00FFE00
C00C0000
C01C0000
C01C0000
C0180000
60380000
70780000
3FFFFC00
1F3FFC00
ENDCHAR

STARTCHAR char141
ENCODING 141
SWIDTH 16 0
DWIDTH 25 0
BBX 0 0 0 0
BITMAP
ENDCHAR

STARTCHAR char145
ENCODING 145
SWIDTH 21 0
DWIDTH 6 0
BBX 4 7 3 11
BITMAP
10
60
40
D0
E0
E0
80
ENDCHAR

STARTCHAR char146
ENCODING 146
SWIDTH 21 0
DWIDTH 6 0
BBX 4 8 3 11
BITMAP
10
70
60
60
60
60
C0
80
ENDCHAR

STARTCHAR char147
ENCODING 147
SWIDTH 35 0
DWIDTH 10 0
BBX 9 7 2 11
BITMAP
0800
3100
6200
7680
6700
6600
8400
ENDCHAR

STARTCHAR char148
ENCODING 148
SWIDTH 35 0
DWIDTH 10 0
BBX 8 8 3 11
BITMAP
11
67
66
E6
66
66
CC
88
ENDCHAR

STARTCHAR char149
ENCODING 149
SWIDTH 32 0
DWIDTH 9 0
BBX 7 6 1 6
BITMAP
38
7C
FE
FE
FE
38
ENDCHAR

STARTCHAR char150
ENCODING 150
SWIDTH 17 0
DWIDTH 15 0
BBX 12 2 1 6
BITMAP
FFF0
FFF0
ENDCHAR

STARTCHAR char151
ENCODING 151
SWIDTH 24 0
DWIDTH 17 0
BBX 17 2 0 6
BITMAP
FFFF80
FFFF80
ENDCHAR

STARTCHAR char152
ENCODING 152
SWIDTH 0 0
DWIDTH 0 0
BBX 9 2 -2 15
BITMAP
7980
FF00
ENDCHAR

STARTCHAR char153
ENCODING 153
SWIDTH 9 0
DWIDTH 23 0
BBX 21 9 0 7
BITMAP
FF2030
993050
183070
1838B0
1828B0
182D30
182730
182630
3C6278
ENDCHAR

STARTCHAR char155
ENCODING 155
SWIDTH 32 0
DWIDTH 9 0
BBX 4 8 2 3
BITMAP
80
C0
70
30
30
70
C0
80
ENDCHAR

STARTCHAR char156
ENCODING 156
SWIDTH 9 0
DWIDTH 23 0
BBX 20 13 0 0
BITMAP
0FC7C0
3FEFE0
387C20
703830
E03030
E03FF0
C03FF0
C07000
C07000
E0F060
71F0E0
3FBFC0
1F1F80
ENDCHAR

STARTCHAR char157
ENCODING 157
SWIDTH 16 0
DWIDTH 25 0
BBX 0 0 0 0
BITMAP
ENDCHAR

STARTCHAR char159
ENCODING 159
SWIDTH 17 0
DWIDTH 15 0
BBX 15 22 2 0
BITMAP
0C60
0CE0
0880
0000
E01E
E01C
7038
7070
3070
38E0
39C0
1980
1F80
1F00
0E00
0C00
0C00
1C00
1C00
1C00
1800
1800
ENDCHAR

STARTCHAR char160
ENCODING 160
SWIDTH 25 0
DWIDTH 7 0
BBX 0 0 0 0
BITMAP
ENDCHAR

STARTCHAR char161
ENCODING 161
SWIDTH 25 0
DWIDTH 7 0
BBX 7 18 0 0
BITMAP
0E
0C
10
00
00
18
18
18
18
30
30
30
70
70
70
60
E0
E0
ENDCHAR

STARTCHAR char162
ENCODING 162
SWIDTH 10 0
DWIDTH 13 0
BBX 12 19 1 -3
BITMAP
0100
0100
0300
0FC0
1FE0
3260
6670
6600
C400
C400
CC00
CC00
C8C0
E9C0
7F80
3E00
1000
1000
3000
ENDCHAR

STARTCHAR char163
ENCODING 163
SWIDTH 13 0
DWIDTH 14 0
BBX 13 18 1 0
BITMAP
03C0
0FF0
1C38
1818
3018
3038
3000
3000
FF80
FF80
1800
3800
3000
3000
6000
FE20
FFE0
C7E0
ENDCHAR

STARTCHAR char164
ENCODING 164
SWIDTH 0 0
DWIDTH 0 0
BBX 6 4 1 19
BITMAP
3C
38
70
E0
ENDCHAR

STARTCHAR char165
ENCODING 165
SWIDTH 0 0
DWIDTH 0 0
BBX 7 4 0 19
BITMAP
06
CC
D8
78
ENDCHAR

STARTCHAR char166
ENCODING 166
SWIDTH 16 0
DWIDTH 25 0
BBX 0 0 0 0
BITMAP
ENDCHAR

STARTCHAR char167
ENCODING 167
SWIDTH 13 0
DWIDTH 14 0
BBX 13 22 0 -4
BITMAP
03C0
07F0
0E70
0C38
0C38
0C00
1E00
3700
63C0
61E0
70E0
3070
3830
1C30
0E60
03C0
0180
0180
E180
7180
7F00
1E00
ENDCHAR

STARTCHAR char168
ENCODING 168
SWIDTH 0 0
DWIDTH 0 0
BBX 8 3 -2 14
BITMAP
67
E6
84
ENDCHAR

STARTCHAR char169
ENCODING 169
SWIDTH 35 0
DWIDTH 20 0
BBX 17 17 1 0
BITMAP
03E000
0C1800
100C00
200600
41F300
423100
841080
8C0080
8C0080
8C0080
8C0080
840180
463100
63C300
200600
180C00
07F000
ENDCHAR

STARTCHAR char170
ENCODING 170
SWIDTH 0 0
DWIDTH 0 0
BBX 7 3 -1 19
BITMAP
E6
E6
84
ENDCHAR

STARTCHAR char171
ENCODING 171
SWIDTH 6 0
DWIDTH 12 0
BBX 10 9 1 2
BITMAP
0840
18C0
7380
E700
8600
C700
7380
2100
2100
ENDCHAR

STARTCHAR char172
ENCODING 172
SWIDTH 28 0
DWIDTH 18 0
BBX 17 7 0 0
BITMAP
FFFF80
000180
000180
000180
000180
000180
000180
ENDCHAR

STARTCHAR char174
ENCODING 174
SWIDTH 35 0
DWIDTH 20 0
BBX 17 16 1 0
BITMAP
07F000
180C00
200600
4FE200
463100
863180
863080
87C080
86C080
866080
867180
463100
4F3B00
200600
180C00
07F000
ENDCHAR

STARTCHAR char176
ENCODING 176
SWIDTH 25 0
DWIDTH 7 0
BBX 7 8 2 9
BITMAP
38
64
C2
82
82
C2
64
38
ENDCHAR

STARTCHAR char177
ENCODING 177
SWIDTH 13 0
DWIDTH 14 0
BBX 13 16 0 0
BITMAP
0600
0600
0600
0600
0600
0600
FFF8
FFF8
0600
0600
0600
0600
0600
0000
FFF8
FFF8
ENDCHAR

STARTCHAR char179
ENCODING 179
SWIDTH 16 0
DWIDTH 25 0
BBX 0 0 0 0
BITMAP
ENDCHAR

STARTCHAR char180
ENCODING 180
SWIDTH 0 0
DWIDTH 0 0
BBX 6 4 0 14
BITMAP
3C
38
70
E0
ENDCHAR

STARTCHAR char182
ENCODING 182
SWIDTH 28 0
DWIDTH 18 0
BBX 11 22 2 -4
BITMAP
1FE0
3FE0
7C60
FC60
FC60
FC60
FC60
7C60
7C60
3C60
0C60
0C60
0C60
0C60
0C60
0C60
0C60
0C60
0C60
0C60
0C60
0C60
ENDCHAR

STARTCHAR char183
ENCODING 183
SWIDTH 14 0
DWIDTH 4 0
BBX 3 3 2 6
BITMAP
40
E0
C0
ENDCHAR

STARTCHAR char184
ENCODING 184
SWIDTH 0 0
DWIDTH 0 0
BBX 3 4 -2 -5
BITMAP
E0
C0
40
C0
ENDCHAR

STARTCHAR char186
ENCODING 186
SWIDTH 0 0
DWIDTH 0 0
BBX 8 3 -1 19
BITMAP
71
FF
8E
ENDCHAR

STARTCHAR char187
ENCODING 187
SWIDTH 6 0
DWIDTH 12 0
BBX 11 9 0 3
BITMAP
2100
2100
3180
18C0
0840
38C0
7380
E300
8400
ENDCHAR

STARTCHAR char189
ENCODING 189
SWIDTH 16 0
DWIDTH 25 0
BBX 0 0 0 0
BITMAP
ENDCHAR

STARTCHAR char191
ENCODING 191
SWIDTH 10 0
DWIDTH 13 0
BBX 11 18 0 0
BITMAP
01C0
0180
0200
0000
0000
0300
0300
0700
1E00
3800
7000
E000
C060
C0E0
C0C0
E1C0
7F80
1F00
ENDCHAR

STARTCHAR char192
ENCODING 192
SWIDTH 24 0
DWIDTH 17 0
BBX 15 23 -1 0
BITMAP
01E0
00E0
0070
0030
0000
0070
0078
00F8
00D8
01D8
0198
0398
071C
061C
0E0C
0C0C
1FFC
1FFC
380E
700E
700E
E006
E006
ENDCHAR

STARTCHAR char193
ENCODING 193
SWIDTH 24 0
DWIDTH 17 0
BBX 15 23 -1 0
BITMAP
001E
001C
0038
0070
0000
0070
0078
00F8
00D8
01D8
0198
0398
071C
061C
0E0C
0C0C
1FFC
1FFC
380E
700E
700E
E006
E006
ENDCHAR

STARTCHAR char194
ENCODING 194
SWIDTH 24 0
DWIDTH 17 0
BBX 15 23 -1 0
BITMAP
0038
0078
00EC
01CC
0000
0070
0078
00F8
00D8
01D8
0198
0398
071C
061C
0E0C
0C0C
1FFC
1FFC
380E
700E
700E
E006
E006
ENDCHAR

STARTCHAR char195
ENCODING 195
SWIDTH 24 0
DWIDTH 17 0
BBX 15 22 -1 0
BITMAP
00E2
01FE
010C
0000
0078
0078
00F8
00D8
01D8
0198
0398
071C
060C
0E0C
0C0C
1FFC
1FFC
380E
300E
700E
E006
E006
ENDCHAR

STARTCHAR char196
ENCODING 196
SWIDTH 24 0
DWIDTH 17 0
BBX 15 22 -1 0
BITMAP
00E6
00C6
0084
0000
0070
0078
00F8
00D8
01D8
0198
0398
071C
061C
0E0C
0C0C
1FFC
1FFC
380E
700E
700E
E006
E006
ENDCHAR

STARTCHAR char197
ENCODING 197
SWIDTH 24 0
DWIDTH 17 0
BBX 15 23 -1 0
BITMAP
0038
006C
0044
006C
0038
0070
0078
00F8
01D8
01D8
0398
0398
071C
061C
0E0C
0C0C
1FFC
1FFC
380E
700E
700E
E006
E006
ENDCHAR

STARTCHAR char198
ENCODING 198
SWIDTH 13 0
DWIDTH 24 0
BBX 24 18 -1 0
BITMAP
007FFF
007FFF
00E7FF
00C600
01C600
018E00
038E00
070E00
070FFC
0E0FFC
0C1C00
1FFC00
1FF800
381800
303800
703800
E03FFC
C03FF8
ENDCHAR

STARTCHAR char199
ENCODING 199
SWIDTH 28 0
DWIDTH 18 0
BBX 16 23 1 -5
BITMAP
03F0
0FFC
1E1E
3807
3807
7003
6000
E000
C000
C000
C000
C000
C006
E00E
601C
3838
1FF0
0FC0
0000
0700
0600
0200
0400
ENDCHAR

STARTCHAR char200
ENCODING 200
SWIDTH 17 0
DWIDTH 15 0
BBX 15 23 0 0
BITMAP
0780
0380
01C0
00E0
0000
1FFE
1FFC
1800
1800
1800
3800
3800
3800
3FF8
3FF8
7000
7000
6000
6000
6000
E000
FFF0
FFF0
ENDCHAR

STARTCHAR char201
ENCODING 201
SWIDTH 17 0
DWIDTH 15 0
BBX 15 23 0 0
BITMAP
0078
0070
00E0
00C0
0000
1FFE
1FFC
1800
1800
1800
3800
3800
3800
3FF8
3FF8
7000
7000
6000
6000
6000
E000
FFF0
FFF0
ENDCHAR

STARTCHAR char202
ENCODING 202
SWIDTH 17 0
DWIDTH 15 0
BBX 15 23 0 0
BITMAP
00E0
01E0
03B0
0730
0000
1FFE
1FFC
1800
1800
1800
3800
3800
3800
3FF8
3FF8
7000
7000
6000
6000
6000
E000
FFF0
FFF0
ENDCHAR

STARTCHAR char203
ENCODING 203
SWIDTH 17 0
DWIDTH 15 0
BBX 15 22 0 0
BITMAP
0330
0730
0420
0000
1FFE
1FFC
1800
1800
1800
3800
3800
3800
3FF8
3FF8
7000
7000
6000
6000
6000
E000
FFF0
FFF0
ENDCHAR

STARTCHAR char204
ENCODING 204
SWIDTH 21 0
DWIDTH 6 0
BBX 7 23 0 0
BITMAP
78
3C
0C
06
00
0E
0C
0C
1C
1C
1C
18
18
38
38
30
30
70
70
70
60
E0
E0
ENDCHAR

STARTCHAR char205
ENCODING 205
SWIDTH 21 0
DWIDTH 6 0
BBX 9 23 0 0
BITMAP
0380
0700
0E00
0C00
0000
0E00
0C00
0C00
1C00
1C00
1C00
1800
1800
3800
3800
3000
3000
7000
7000
7000
6000
E000
E000
ENDCHAR

STARTCHAR char206
ENCODING 206
SWIDTH 21 0
DWIDTH 6 0
BBX 9 23 0 0
BITMAP
0E00
1F00
3B00
7180
0000
0E00
0C00
0C00
1C00
1C00
1C00
1800
3800
3800
3800
3000
3000
7000
7000
7000
6000
E000
E000
ENDCHAR

STARTCHAR char207
ENCODING 207
SWIDTH 21 0
DWIDTH 6 0
BBX 9 22 0 0
BITMAP
3380
3300
2200
0000
0E00
0C00
0C00
1C00
1C00
1C00
1800
1800
3800
3800
3000
3000
7000
7000
7000
6000
E000
E000
ENDCHAR

STARTCHAR char209
ENCODING 209
SWIDTH 24 0
DWIDTH 17 0
BBX 17 22 0 0
BITMAP
01E400
03FC00
023800
000000
1C0180
1C0380
1E0300
1E0300
3F0300
3B0700
338700
338600
318600
71C600
70CE00
60EE00
60EC00
606C00
E07C00
E03C00
C03C00
C01800
ENDCHAR

STARTCHAR char210
ENCODING 210
SWIDTH 31 0
DWIDTH 19 0
BBX 16 23 1 0
BITMAP
03C0
01C0
00E0
0070
0000
03F0
0FFC
1E0C
3806
7007
7003
6003
E003
C003
C003
C003
C007
C006
E00E
601C
7038
3FF0
0FC0
ENDCHAR

STARTCHAR char211
ENCODING 211
SWIDTH 31 0
DWIDTH 19 0
BBX 16 23 1 0
BITMAP
003C
0038
0070
0060
0000
03F0
0FFC
1E0C
3806
7007
7003
6003
E003
C003
C003
C003
C007
C006
E00E
601C
7038
3FF0
0FC0
ENDCHAR

STARTCHAR char212
ENCODING 212
SWIDTH 31 0
DWIDTH 19 0
BBX 16 23 1 0
BITMAP
0070
00F8
01D8
0398
0000
03F0
0FFC
1E0C
3806
7007
7003
6003
E003
C003
C003
C003
C007
C006
E00E
601C
7038
3FF0
0FC0
ENDCHAR

STARTCHAR char213
ENCODING 213
SWIDTH 31 0
DWIDTH 19 0
BBX 16 22 1 0
BITMAP
01C4
03FC
0218
0000
03F0
0FFC
1E0C
3806
7007
7003
6003
E003
C003
C003
C003
C007
C006
E00E
601C
7038
3FF0
0FC0
ENDCHAR

STARTCHAR char214
ENCODING 214
SWIDTH 31 0
DWIDTH 19 0
BBX 16 22 1 0
BITMAP
01CC
018C
0110
0000
03F0
0FF8
1E0C
3806
7007
7003
6003
E003
C003
C003
C003
C007
C006
E00E
601C
7038
3FF0
0FC0
ENDCHAR

STARTCHAR char216
ENCODING 216
SWIDTH 31 0
DWIDTH 19 0
BBX 18 20 0 -1
BITMAP
000080
01F8C0
07FF80
0F0700
1C0700
380D80
300980
301180
702180
604180
608180
618180
630300
660300
6C0700
380E00
381C00
3FF800
C7E000
400000
ENDCHAR

STARTCHAR char217
ENCODING 217
SWIDTH 24 0
DWIDTH 17 0
BBX 16 23 1 0
BITMAP
0780
0380
01C0
00E0
0000
3807
3806
3006
300E
300E
700E
700C
600C
601C
601C
E018
C018
C038
C038
C070
60F0
3FE0
1F80
ENDCHAR

STARTCHAR char218
ENCODING 218
SWIDTH 24 0
DWIDTH 17 0
BBX 16 23 1 0
BITMAP
0078
0070
00E0
00C0
0000
3807
3806
3006
300E
300E
700E
700C
600C
601C
601C
E018
C018
C038
C038
C070
60F0
3FE0
1F80
ENDCHAR

STARTCHAR char219
ENCODING 219
SWIDTH 24 0
DWIDTH 17 0
BBX 16 23 1 0
BITMAP
00E0
01F0
03B0
0730
0000
3807
3806
3006
300E
300E
700E
700C
600C
601C
601C
E018
C018
C038
C038
C070
60F0
3FE0
1F80
ENDCHAR

STARTCHAR char220
ENCODING 220
SWIDTH 24 0
DWIDTH 17 0
BBX 16 22 1 0
BITMAP
0398
0318
0220
0000
3807
3806
3006
300E
300E
700E
700C
600C
601C
601C
E018
C018
C038
C038
C070
60F0
3FE0
1F80
ENDCHAR

STARTCHAR char222
ENCODING 222
SWIDTH 16 0
DWIDTH 25 0
BBX 0 0 0 0
BITMAP
ENDCHAR

STARTCHAR char223
ENCODING 223
SWIDTH 10 0
DWIDTH 13 0
BBX 12 18 0 0
BITMAP
03C0
0FE0
1E70
1C30
1830
3830
3860
33E0
33C0
30E0
7060
6060
6060
6060
60E0
E1C0
CF80
CF00
ENDCHAR

STARTCHAR char224
ENCODING 224
SWIDTH 10 0
DWIDTH 13 0
BBX 12 18 0 0
BITMAP
0F00
0780
0380
01C0
0000
07C0
1FF0
3030
0030
0070
1FE0
7FE0
F0E0
C0E0
C0E0
E1C0
7FF0
3E70
ENDCHAR

STARTCHAR char225
ENCODING 225
SWIDTH 10 0
DWIDTH 13 0
BBX 12 18 0 0
BITMAP
00E0
01C0
0180
0300
0000
07C0
1FF0
3030
0030
0070
1FF0
7FE0
F060
C0E0
C0E0
E1C0
7FF0
3E70
ENDCHAR

STARTCHAR char226
ENCODING 226
SWIDTH 10 0
DWIDTH 13 0
BBX 12 17 0 0
BITMAP
03C0
0660
0C60
0000
07C0
1FF0
3030
0030
0070
1FE0
7FE0
F0E0
C0E0
C0E0
E1C0
7FF0
3E70
ENDCHAR

STARTCHAR char227
ENCODING 227
SWIDTH 10 0
DWIDTH 13 0
BBX 13 17 0 0
BITMAP
0718
0FF0
0000
0000
0780
1FE0
3060
0060
0060
1FC0
7FC0
F0C0
C0C0
C0C0
E180
7FE0
3E60
ENDCHAR

STARTCHAR char228
ENCODING 228
SWIDTH 10 0
DWIDTH 13 0
BBX 12 17 0 0
BITMAP
0670
0E60
0840
0FC0
1FE0
3870
3030
0030
0070
1FF0
7FE0
F060
C0E0
C0E0
E1E0
7FF0
3E70
ENDCHAR

STARTCHAR char229
ENCODING 229
SWIDTH 10 0
DWIDTH 13 0
BBX 12 19 0 0
BITMAP
01C0
03C0
0260
0340
01C0
07C0
1FE0
3C70
3030
0030
0070
0FF0
7FE0
F060
C0E0
C0E0
E1E0
7FF0
3E70
ENDCHAR

STARTCHAR char230
ENCODING 230
SWIDTH 6 0
DWIDTH 22 0
BBX 20 14 0 0
BITMAP
010000
0FC780
3FFFE0
307860
007030
00E030
3FFFF0
7FFFF0
E0C000
C0E000
C1E060
C3E1C0
7F7F80
3C1F00
ENDCHAR

STARTCHAR char231
ENCODING 231
SWIDTH 10 0
DWIDTH 13 0
BBX 12 18 1 -5
BITMAP
0F80
1FC0
3060
6070
6000
C000
C000
C000
C000
C0C0
61C0
7F80
1E00
0000
1800
1800
0800
1000
ENDCHAR

STARTCHAR char232
ENCODING 232
SWIDTH 13 0
DWIDTH 14 0
BBX 11 18 1 0
BITMAP
1E00
0E00
0300
0180
0000
0F00
3FC0
30C0
6060
4060
FFE0
FFE0
C000
C000
C0C0
6180
7F80
1E00
ENDCHAR

STARTCHAR char233
ENCODING 233
SWIDTH 13 0
DWIDTH 14 0
BBX 11 18 1 0
BITMAP
01C0
0180
0300
0700
0000
0F00
3FC0
30C0
6060
4060
FFE0
FFE0
C000
C000
C0C0
6180
7F80
1E00
ENDCHAR

STARTCHAR char234
ENCODING 234
SWIDTH 13 0
DWIDTH 14 0
BBX 11 17 1 0
BITMAP
0780
0480
0CC0
0000
0F00
3FC0
30C0
6060
4060
FFE0
FFE0
C000
C000
C0C0
6180
7F80
1E00
ENDCHAR

STARTCHAR char235
ENCODING 235
SWIDTH 13 0
DWIDTH 14 0
BBX 11 17 1 0
BITMAP
0CC0
1CC0
1080
0000
0F00
3FC0
30C0
6060
4060
FFE0
FFE0
C000
C000
C0C0
6180
7F80
1E00
ENDCHAR

STARTCHAR char236
ENCODING 236
SWIDTH 21 0
DWIDTH 6 0
BBX 6 18 0 0
BITMAP
70
38
1C
0C
00
18
18
38
38
30
30
30
70
70
60
60
E0
E0
ENDCHAR

STARTCHAR char237
ENCODING 237
SWIDTH 21 0
DWIDTH 6 0
BBX 8 18 0 0
BITMAP
07
0E
0C
18
00
18
18
38
38
30
30
30
70
70
60
60
E0
E0
ENDCHAR

STARTCHAR char238
ENCODING 238
SWIDTH 21 0
DWIDTH 6 0
BBX 8 17 0 0
BITMAP
1E
36
63
00
18
18
38
38
30
30
30
70
70
60
60
E0
E0
ENDCHAR

STARTCHAR char239
ENCODING 239
SWIDTH 21 0
DWIDTH 6 0
BBX 8 17 0 0
BITMAP
73
63
44
00
18
18
38
38
30
30
30
70
70
60
60
E0
E0
ENDCHAR

STARTCHAR char241
ENCODING 241
SWIDTH 13 0
DWIDTH 14 0
BBX 13 17 0 0
BITMAP
0798
0FF0
0000
0000
19E0
3FF0
3C30
3830
3030
7070
6060
6060
6060
E0E0
E0E0
C0E0
C0C0
ENDCHAR

STARTCHAR char242
ENCODING 242
SWIDTH 17 0
DWIDTH 15 0
BBX 12 18 1 0
BITMAP
0E00
0700
0300
0180
0000
0F80
3FC0
3060
6030
6030
C030
C030
C070
C060
C0E0
61C0
7F80
1F00
ENDCHAR

STARTCHAR char243
ENCODING 243
SWIDTH 17 0
DWIDTH 15 0
BBX 12 18 1 0
BITMAP
00E0
01C0
0380
0300
0000
0F80
3FC0
3060
6030
6030
C030
C030
C070
C060
C0E0
61C0
7F80
1F00
ENDCHAR

STARTCHAR char244
ENCODING 244
SWIDTH 17 0
DWIDTH 15 0
BBX 12 17 1 0
BITMAP
0380
06C0
0C60
0000
0F80
3FC0
3060
6030
6030
C030
C030
C070
C060
C0E0
61C0
7F80
1F00
ENDCHAR

STARTCHAR char245
ENCODING 245
SWIDTH 17 0
DWIDTH 15 0
BBX 12 17 1 0
BITMAP
0FF0
08E0
0000
0000
0F80
3FC0
3060
6030
6030
C030
C030
C070
C060
C0E0
61C0
7F80
1F00
ENDCHAR

STARTCHAR char246
ENCODING 246
SWIDTH 17 0
DWIDTH 15 0
BBX 12 17 1 0
BITMAP
0E60
0C60
0840
0780
1FC0
38E0
3070
6030
6030
C030
C030
C070
C060
C0E0
61C0
7F80
1F00
ENDCHAR

STARTCHAR char247
ENCODING 247
SWIDTH 13 0
DWIDTH 14 0
BBX 13 9 0 2
BITMAP
0600
0600
0000
0000
FFF8
FFF8
0000
0600
0600
ENDCHAR

STARTCHAR char248
ENCODING 248
SWIDTH 17 0
DWIDTH 15 0
BBX 13 15 0 -1
BITMAP
0008
0FC8
1FF0
3830
7078
6098
E118
C218
C438
C830
F870
70E0
7FC0
9F80
8000
ENDCHAR

STARTCHAR char249
ENCODING 249
SWIDTH 13 0
DWIDTH 14 0
BBX 12 18 1 0
BITMAP
0E00
0700
0300
0180
0000
7030
7070
6060
6060
6060
6060
60E0
C0C0
C1C0
C1C0
C3C0
FF80
7980
ENDCHAR

STARTCHAR char250
ENCODING 250
SWIDTH 13 0
DWIDTH 14 0
BBX 12 18 1 0
BITMAP
01E0
01C0
0380
0700
0000
7030
7070
6060
6060
6060
6060
60E0
C0C0
C1C0
C1C0
C3C0
FF80
7980
ENDCHAR

STARTCHAR char251
ENCODING 251
SWIDTH 13 0
DWIDTH 14 0
BBX 12 17 1 0
BITMAP
0380
06C0
0CC0
0000
7030
7070
6060
6060
6060
6060
60E0
C0C0
C1C0
C1C0
C3C0
FF80
7980
ENDCHAR

STARTCHAR char252
ENCODING 252
SWIDTH 13 0
DWIDTH 14 0
BBX 12 17 1 0
BITMAP
0E60
0C60
0880
0000
7030
7070
7060
6060
6060
6060
60E0
C0C0
C0C0
C1C0
C3C0
FFC0
3980
ENDCHAR

STARTCHAR char255
ENCODING 255
SWIDTH 6 0
DWIDTH 12 0
BBX 14 21 -1 -4
BITMAP
0670
0E60
0840
0000
3818
3838
1830
1870
1860
18E0
18C0
1DC0
0D80
0F80
0F00
0F00
0E00
0E00
1C00
7800
F000
ENDCHAR
ENDFONT
